<svg xmlns="http://www.w3.org/2000/svg" xml:space="preserve" width="1080" height="1080">
  <rect width="100%" height="100%" fill="transparent"/>
  <path d="M220.183 34.076c-18.387 4.928-28.134 19.14-28.134 41.023 0 10.338-1.165 11.228-15.902 12.161-67.745 4.287-100.496 20.331-114.834 56.258-2.101 5.264-3.821 10.611-3.821 11.881 0 1.27-1.029 4.944-2.286 8.164-1.258 3.221-2.682 9.088-3.165 13.038-.483 3.95-1.629 9.309-2.546 11.909-3.152 8.934-6.871 63.922-4.883 72.195.384 1.597 1.169 6.767 1.746 11.488 4.419 36.193 55.832 49.003 83.609 20.831 8.035-8.15 12.864-16.015 21.598-35.183 5.466-11.994 3.457-11.537 51.461-11.702l40.946-.141 4.008 3.057c2.204 1.682 4.008 3.742 4.008 4.579 0 2.008 12.551 26.552 16.148 31.578 19.339 27.023 58.481 31.195 80.508 8.582 3.353-3.443 6.096-7.123 6.096-8.179s1.11-4.096 2.467-6.756c4.747-9.305 4.474-61.974-.432-83.14-1.013-4.373-2.37-10.979-3.015-14.679-9.803-56.241-33.439-81.148-84.647-89.197-13.949-2.192-39.547-4.97-45.905-4.982-15.199-.027-16.7-20.223-2.318-31.193l4.193-3.198 33.942.032c18.668.018 35.779-.37 38.025-.862 8.447-1.851 8.985-13.856.795-17.761-6.485-3.093-65.948-2.942-77.662.197m37.309 75.916c2.691.62 9.847 2.203 15.902 3.516 6.056 1.314 12.661 3.281 14.679 4.372 2.019 1.09 4.601 1.986 5.739 1.99 1.137.004 2.413.566 2.835 1.248.422.683 2.794 2.284 5.271 3.558 18.192 9.359 27.38 29.634 35.041 77.328 4.238 26.381 4.302 63.831.123 71.807-11.469 21.886-45.33 14.851-58.328-12.118-19.083-39.592-9.18-34.705-71.236-35.16-64.771-.474-66.907-.114-69.891 11.772-.426 1.701-1.842 4.448-3.146 6.106-1.304 1.658-2.371 3.659-2.371 4.448 0 2.725-8.38 18.078-13.051 23.911-14.582 18.211-41.574 18.665-50.733.854-10.782-20.965 2.479-114.341 19.176-135.032 10.082-12.493 26.349-21.843 43.197-24.829 4.27-.756 9.225-1.946 11.01-2.643 8.21-3.208 102.765-4.129 115.783-1.128M130.981 140.17c-3.585 3.016-3.764 3.602-3.764 12.313 0 13.286-.519 13.878-12.181 13.878-15.817 0-23.056 9.514-13.413 17.628 3.785 3.185 5.576 3.544 15.945 3.194 8.249-.278 9.649 1.657 9.649 13.337 0 11.489 2.881 15.994 10.231 15.994 7.3 0 10.564-5.307 10.564-17.176 0-11.574.656-12.182 13.14-12.182 10.411 0 16.218-3.734 16.218-10.43 0-6.69-6.174-10.365-17.411-10.365-11.352 0-11.947-.608-11.947-12.205 0-14.854-8.097-21.504-17.031-13.986m136.225-2.128c-11.393 3.599-14.456 15.876-5.847 23.435 9.683 8.502 23.835-1.102 20.082-13.627-1.225-4.091-8.579-11.207-11.083-10.725-.348.067-1.767.48-3.152.917m-33.096 30.393c-8.298 9.059-3.032 21.212 9.154 21.129 13.039-.09 18.716-11.686 10.136-20.705-6.588-6.926-13.201-7.072-19.29-.424m55.141-3.418c-4.068 1.751-9.531 10.583-8.67 14.016 2.845 11.333 21.556 14.1 26.214 3.876 5.021-11.019-6.416-22.682-17.544-17.892m-26.975 26.708c-8.52 7.624-8.732 14.052-.713 21.594 9.531 8.965 25.781-3.398 19.82-15.079-4.905-9.611-12.684-12.263-19.107-6.515" style="stroke:#2c3c4f;stroke-width:0;stroke-dasharray:none;stroke-linecap:butt;stroke-dashoffset:0;stroke-linejoin:miter;stroke-miterlimit:4;fill:#2c3c4f;fill-rule:nonzero;opacity:1" transform="matrix(2.64 0 0 2.64 3.349 88.93)" vector-effect="non-scaling-stroke"/>
</svg>
