<svg xmlns="http://www.w3.org/2000/svg" xml:space="preserve" width="1080" height="1080">
  <g>
    <path d="M441 2537c-76-9-140-53-198-134-50-71-51-87-58-993-6-809-5-848 13-922 22-89 57-146 121-194 87-67 52-65 1037-62 885 3 889 3 935 24 50 24 149 113 149 136 0 7 9 30 20 51 20 36 20 56 20 943v905l-25 55c-52 113-134 182-228 190-92 8-1720 9-1786 1zm1125-155c38-4 44-41 44-257 0-193-1-206-20-225-20-20-29-21-621-18-520 3-601 5-609 18-5 8-10 89-10 179 0 149 2 168 22 208 23 47 62 80 104 91 21 6 1037 10 1090 4zm664-20c19-12 45-37 58-55l22-34-2-892-3-892-47-45-47-44h-210c-196 0-211 1-220 19-7 12-11 343-11 951 0 513-3 936-6 941-6 10 22 66 36 71 6 1 97 3 203 2 179 0 194-1 227-22zm-637-661c11-11 12-1276 1-1292-3-5-260-9-572-9H456l-47 50c-36 39-48 59-52 92-3 24-6 291-7 594-1 583-2 567 44 575 48 9 1190-1 1199-10z" style="stroke:none;stroke-width:1;stroke-dasharray:none;stroke-linecap:butt;stroke-dashoffset:0;stroke-linejoin:miter;stroke-miterlimit:4;fill:#303f4f;fill-rule:nonzero;opacity:1" transform="matrix(.43 0 0 -.43 -46.125 1140.298)" vector-effect="non-scaling-stroke"/>
    <path d="M561 1491c-23-22-31-38-31-65 0-71 35-106 105-106 56 0 82 15 95 56 37 110-85 193-169 115z" style="stroke:none;stroke-width:1;stroke-dasharray:none;stroke-linecap:butt;stroke-dashoffset:0;stroke-linejoin:miter;stroke-miterlimit:4;fill:#303f4f;fill-rule:nonzero;opacity:1" transform="matrix(.43 0 0 -.43 -53.856 1139.917)" vector-effect="non-scaling-stroke"/>
    <path d="M934 1511c-33-14-64-61-64-95 0-23 10-42 31-64 27-27 39-32 79-32s52 5 79 32c40 42 42 86 4 128-30 34-89 48-129 31z" style="stroke:none;stroke-width:1;stroke-dasharray:none;stroke-linecap:butt;stroke-dashoffset:0;stroke-linejoin:miter;stroke-miterlimit:4;fill:#303f4f;fill-rule:nonzero;opacity:1" transform="matrix(.43 0 0 -.43 -50.018 1139.951)" vector-effect="non-scaling-stroke"/>
    <path d="M1268 1505c-58-32-58-154 0-176s127-7 147 32c52 99-48 197-147 144z" style="stroke:none;stroke-width:1;stroke-dasharray:none;stroke-linecap:butt;stroke-dashoffset:0;stroke-linejoin:miter;stroke-miterlimit:4;fill:#303f4f;fill-rule:nonzero;opacity:1" transform="matrix(.43 0 0 -.43 -46.163 1139.951)" vector-effect="non-scaling-stroke"/>
    <path d="M578 1144c-35-19-48-43-48-92 0-33 6-45 35-71 49-43 92-42 139 3 38 35 46 70 26 120-18 49-97 70-152 40z" style="stroke:none;stroke-width:1;stroke-dasharray:none;stroke-linecap:butt;stroke-dashoffset:0;stroke-linejoin:miter;stroke-miterlimit:4;fill:#303f4f;fill-rule:nonzero;opacity:1" transform="matrix(.43 0 0 -.43 -53.85 1143.994)" vector-effect="non-scaling-stroke"/>
    <path d="M934 1146c-70-31-86-109-32-157 49-45 91-48 141-11 34 24 43 37 45 67 4 46-19 82-63 101-42 17-51 17-91 0z" style="stroke:none;stroke-width:1;stroke-dasharray:none;stroke-linecap:butt;stroke-dashoffset:0;stroke-linejoin:miter;stroke-miterlimit:4;fill:#303f4f;fill-rule:nonzero;opacity:1" transform="matrix(.43 0 0 -.43 -50.034 1143.973)" vector-effect="non-scaling-stroke"/>
    <path d="M1264 1141c-54-33-55-121-2-166 42-35 88-33 133 6 29 26 35 38 35 71 0 50-13 74-50 93-39 20-79 19-116-4z" style="stroke:none;stroke-width:1;stroke-dasharray:none;stroke-linecap:butt;stroke-dashoffset:0;stroke-linejoin:miter;stroke-miterlimit:4;fill:#303f4f;fill-rule:nonzero;opacity:1" transform="matrix(.43 0 0 -.43 -46.176 1143.986)" vector-effect="non-scaling-stroke"/>
    <path d="M567 776c-32-29-37-40-37-77 0-50 3-54 48-92 46-37 73-34 123 13 39 37 41 42 36 82-4 32-15 51-41 75-47 43-81 43-129-1z" style="stroke:none;stroke-width:1;stroke-dasharray:none;stroke-linecap:butt;stroke-dashoffset:0;stroke-linejoin:miter;stroke-miterlimit:4;fill:#303f4f;fill-rule:nonzero;opacity:1" transform="matrix(.43 0 0 -.43 -53.861 1147.973)" vector-effect="non-scaling-stroke"/>
    <path d="M944 801c-38-16-74-70-74-109 0-29 7-43 37-69 20-18 44-33 52-34 44-3 69 5 99 34 26 25 32 39 32 72s-6 47-33 73c-35 34-79 47-113 33z" style="stroke:none;stroke-width:1;stroke-dasharray:none;stroke-linecap:butt;stroke-dashoffset:0;stroke-linejoin:miter;stroke-miterlimit:4;fill:#303f4f;fill-rule:nonzero;opacity:1" transform="matrix(.43 0 0 -.43 -50.02 1147.933)" vector-effect="non-scaling-stroke"/>
    <path d="M1272 788c-35-25-57-81-46-123 8-33 69-85 99-85 31 0 101 61 107 93 7 37-15 84-51 112-43 31-67 32-109 3z" style="stroke:none;stroke-width:1;stroke-dasharray:none;stroke-linecap:butt;stroke-dashoffset:0;stroke-linejoin:miter;stroke-miterlimit:4;fill:#303f4f;fill-rule:nonzero;opacity:1" transform="matrix(.43 0 0 -.43 -46.152 1147.98)" vector-effect="non-scaling-stroke"/>
  </g>
</svg>
