<svg xmlns="http://www.w3.org/2000/svg" xml:space="preserve" width="1080" height="1080">
  <rect width="100%" height="100%" fill="transparent"/>
  <g>
    <path d="M771 2223c-59-36-87-65-119-126l-27-52V345l23-45c13-25 43-62 65-84 80-74 50-71 657-74 398-3 560 0 600 9 100 21 173 89 204 189 15 50 16 127 14 870-3 651-6 824-17 860-16 51-75 119-138 155l-42 25h-588l-588-1-44-26zm1209-133c10-5 28-25 39-44 21-33 21-43 21-614V850l-22-5c-31-8-1235-2-1242 6-11 10-8 1143 3 1169 5 14 21 37 36 53l26 27h560c350 0 567-4 579-10zm54-1410c6-6 9-67 7-156-2-132-5-150-24-176-48-64-37-63-617-60-519 3-525 3-564 25-28 15-43 33-52 59-12 34-23 293-13 301 2 2 12 8 21 13 24 13 1229 7 1242-6z" style="stroke:none;stroke-width:1;stroke-dasharray:none;stroke-linecap:butt;stroke-dashoffset:0;stroke-linejoin:miter;stroke-miterlimit:4;fill:#303f4f;fill-rule:nonzero;opacity:1" transform="matrix(.48 0 0 -.48 -162.244 1115.007)" vector-effect="non-scaling-stroke"/>
    <path d="M1227 1768c-79-79-149-151-154-162-11-19-2-82 14-97 4-4 20-11 35-14 23-6 35 1 80 42 29 26 54 51 56 55s12 18 22 30c15 19 20 20 34 9 14-12 16-48 16-293 0-267 1-281 21-309 26-38 70-39 105-4l25 25-2 286c-1 204 2 289 10 297s30-8 89-66c46-46 86-77 98-77 28 0 74 50 74 81 0 18-38 63-146 172-81 81-154 152-164 157-47 25-66 14-213-132z" style="stroke:none;stroke-width:1;stroke-dasharray:none;stroke-linecap:butt;stroke-dashoffset:0;stroke-linejoin:miter;stroke-miterlimit:4;fill:#303f4f;fill-rule:nonzero;opacity:1" transform="matrix(.48 0 0 -.48 -162.22 1111.812)" vector-effect="non-scaling-stroke"/>
    <path d="M1345 601c-58-35-69-58-66-135 2-44 73-106 122-106 131 0 182 182 68 241-48 24-85 24-124 0z" style="stroke:none;stroke-width:1;stroke-dasharray:none;stroke-linecap:butt;stroke-dashoffset:0;stroke-linejoin:miter;stroke-miterlimit:4;fill:#303f4f;fill-rule:nonzero;opacity:1" transform="matrix(.48 0 0 -.48 -162.243 1123.694)" vector-effect="non-scaling-stroke"/>
  </g>
</svg>
