<svg xmlns="http://www.w3.org/2000/svg" xml:space="preserve" width="1080" height="1080">
  <rect width="100%" height="100%" fill="transparent"/>
  <g>
    <path d="M407 2210c-15-5-49-32-76-60l-49-52-7-581c-4-320-5-706-3-858l3-276 48-56c36-42 59-60 90-68 58-17 1764-17 1822 0 56 15 120 77 137 132 10 35 12 162 10 634-2 350-7 606-13 629-13 50-85 121-136 135-23 7-175 11-397 11h-359l-31 34c-18 18-51 64-74 102-78 128-157 238-185 258-27 20-43 21-390 23-199 1-375-2-390-7zm670-155c12-3 31-20 42-38s36-54 56-82c50-70 70-114 58-126-13-13-763-13-776 0-5 5-11 52-13 104-3 83-1 98 17 121l20 26 272 2c287 3 290 3 324-7zm1114-437 29-22V451l-26-20c-27-21-32-21-869-21-794 0-843 1-858 18-14 16-16 80-18 600-1 511 1 585 14 600 14 16 77 17 857 14l841-2 30-22z" style="stroke:none;stroke-width:1;stroke-dasharray:none;stroke-linecap:butt;stroke-dashoffset:0;stroke-linejoin:miter;stroke-miterlimit:4;fill:#303f4f;fill-rule:nonzero;opacity:1" transform="matrix(.46 0 0 -.46 -63.717 1100.433)" vector-effect="non-scaling-stroke"/>
    <path d="M775 1106c-37-16-85-70-85-96 0-52 14-81 53-110 57-42 100-41 150 5 32 30 37 40 37 80 0 63-21 99-70 119-48 19-47 19-85 2z" style="stroke:none;stroke-width:1;stroke-dasharray:none;stroke-linecap:butt;stroke-dashoffset:0;stroke-linejoin:miter;stroke-miterlimit:4;fill:#303f4f;fill-rule:nonzero;opacity:1" transform="matrix(.46 0 0 -.46 -69.735 1103.215)" vector-effect="non-scaling-stroke"/>
    <path d="M1281 1103c-49-25-76-66-76-114 0-35 6-46 42-80 55-51 97-53 153-8 31 25 41 41 46 74 14 98-81 172-165 128z" style="stroke:none;stroke-width:1;stroke-dasharray:none;stroke-linecap:butt;stroke-dashoffset:0;stroke-linejoin:miter;stroke-miterlimit:4;fill:#303f4f;fill-rule:nonzero;opacity:1" transform="matrix(.46 0 0 -.46 -63.731 1103.215)" vector-effect="non-scaling-stroke"/>
    <path d="M1796 1104c-50-28-75-65-76-111 0-58 53-114 117-121 39-4 46-1 82 35 51 51 60 86 35 132-36 66-105 94-158 65z" style="stroke:none;stroke-width:1;stroke-dasharray:none;stroke-linecap:butt;stroke-dashoffset:0;stroke-linejoin:miter;stroke-miterlimit:4;fill:#303f4f;fill-rule:nonzero;opacity:1" transform="matrix(.46 0 0 -.46 -57.703 1103.23)" vector-effect="non-scaling-stroke"/>
  </g>
</svg>
