<svg xmlns="http://www.w3.org/2000/svg" xml:space="preserve" width="1080" height="1080">
  <rect width="100%" height="100%" fill="transparent"/>
  <g>
    <path d="m863.695 1651.53-65.05-365.86h108.769l21.34 119.18c14.57-23.24 35.906-34.87 64.012-34.87 30.184 0 57.334 8.93 81.444 26.8 24.12 17.87 42.5 40.86 55.17 68.96 12.66 28.11 19 56.9 19 86.39 0 23.25-4.86 43.37-14.58 60.37-9.71 17-21.85 28.97-36.43 35.91-7.98 4.51-14.31 7.12-18.99 7.81-4.69.69-9.29 1.56-13.79 2.6h-16.14c-16.31 0-33.39-3.9-51.259-11.71-17.871-7.8-32.531-19.86-43.98-36.17l6.766 40.59zm79.11-155.08c7.636 54.82 27.238 82.22 58.805 82.22 23.94 0 35.91-14.22 35.91-42.67 0-11.45-1.21-21.68-3.64-30.71-2.43-9.02-6.07-17.86-10.93-26.54-10.06-16.65-24.286-24.98-42.673-24.98-24.98 0-37.472 14.23-37.472 42.68m403.855 162.37c-104.43 0-161.68-30.53-171.74-91.59h104.6c6.25 17.69 20.47 26.54 42.68 26.54 21.16 0 31.75-6.42 31.75-19.26 0-8.67-5.73-15.44-17.18-20.3-7.28-3.47-24.98-6.76-53.08-9.88l-39.56-6.77-28.1-5.2c-18.74-5.21-34.52-13.19-47.36-23.94-15.96-12.49-26.02-30.71-30.18-54.65l-2.09-12.49v-6.76c0-19.44 6.6-34.18 19.78-44.24 18.74-13.53 39.55-20.3 62.45-20.3 43.03 0 80.32 12.66 111.9 37.99v-29.66h111.89l1.04 5.21c-6.59 5.89-10.41 12.66-11.45 20.29l3.13 18.22 23.41 133.23c2.09 13.18 3.13 24.28 3.13 33.3 0 23.25-8.5 40.77-25.5 52.57-17 11.79-46.84 17.69-89.52 17.69zm-44.75-170.7c17 3.47 29.83 7.11 38.51 10.93-2.78-19.78-8.85-35.39-18.22-46.84-11.45-13.88-25.68-20.82-42.68-20.82-19.42 2.43-29.14 10.06-29.14 22.9 2.08 11.45 6.59 18.91 13.53 22.38 6.94 3.47 13.19 5.9 18.74 7.29l19.26 4.16m481.08 163.41 46.32-273.22h121.26l138.96 273.22h-103.57l-78.06-172.78-17.18 172.78h-107.73m451.74 7.29c-104.43 0-161.68-30.53-171.75-91.59h104.61c6.25 17.69 20.48 26.54 42.68 26.54 21.16 0 31.75-6.42 31.75-19.26 0-8.67-5.73-15.44-17.18-20.3-7.29-3.47-24.98-6.76-53.09-9.88l-39.55-6.77-28.1-5.2c-18.74-5.21-34.52-13.19-47.36-23.94-15.96-12.49-26.02-30.71-30.19-54.65l-2.08-12.49v-6.76c0-19.44 6.6-34.18 19.78-44.24 18.73-13.53 39.55-20.3 62.45-20.3 43.02 0 80.32 12.66 111.89 37.99v-29.66h111.9l1.04 5.21c-6.59 5.89-10.41 12.66-11.45 20.29l3.12 18.22 23.42 133.23c2.08 13.18 3.12 24.28 3.12 33.3 0 23.25-8.49 40.77-25.5 52.57-17 11.79-46.83 17.69-89.51 17.69zm-44.76-170.7c17 3.47 29.84 7.11 38.51 10.93-2.77-19.78-8.84-35.39-18.21-46.84-11.45-13.88-25.68-20.82-42.68-20.82-19.43 2.43-29.14 10.06-29.14 22.9 2.08 11.45 6.59 18.91 13.53 22.38 6.94 3.47 13.18 5.9 18.74 7.29l19.25 4.16m200.06 163.41-47.89-273.22h108.78l24.46 139.47c4.85 22.9 10.93 37.48 18.21 43.72 8.33 7.98 19.43 11.97 33.31 11.97 20.47 0 30.71-10.76 30.71-32.27l-.52-9.36-.52-8.33-25.5-145.2h107.72l29.67 164.46c2.08 11.44 3.12 22.37 3.12 32.78 0 29.84-7.98 51.18-23.94 64.02-15.96 12.83-37.47 19.25-64.53 19.25-37.82 0-71.82-17-102.01-51l8.33 43.71h-99.4" style="stroke:none;stroke-width:1;stroke-dasharray:none;stroke-linecap:butt;stroke-dashoffset:0;stroke-linejoin:miter;stroke-miterlimit:4;fill:#fff;fill-rule:evenodd;opacity:1" transform="matrix(.47 0 0 -.47 -319.33 1295.18)" vector-effect="non-scaling-stroke"/>
    <path d="M1574.09 1651.53h-107.73l46.32-273.22h.28c-11.6-16.37-23.67-32.59-36.16-48.57-154.97-198.36-316.26-284.83-360.17-193.09-9.4 19.63-12.66 45.85-10.45 76.86-18.77-80.62-19.3-148.01 2.39-190.83 59.19-116.801 261.47-6.7 451.71 245.87 92.23 122.46 164.73 255.95 208.21 374.31l4.41 8.67h-1.27l.38 1.09h-112.62c-16.96-48.15-40.76-100.29-70.17-153.31l-15.13 152.22m1376.87-273.41 65.06 365.86-118.35-53.48-11.76-65.7c-14.57 23.25-35.91 34.87-64.02 34.87-30.18 0-57.33-8.93-81.44-26.8-24.12-17.87-42.5-40.85-55.17-68.96-12.67-28.1-18.99-56.89-18.99-86.39 0-23.25 4.85-43.37 14.57-60.37 9.71-17 21.85-28.97 36.43-35.91 7.98-4.51 14.31-7.11 19-7.81 4.67-.69 9.27-1.56 13.78-2.6h16.14c16.31 0 33.39 3.9 51.26 11.71 17.87 7.81 32.53 19.87 43.98 36.17l-6.77-40.59zm-79.1 155.09c-7.64-54.82-27.24-82.23-58.81-82.23-23.94 0-35.91 14.22-35.91 42.67 0 11.45 1.21 21.69 3.64 30.71s6.07 17.87 10.93 26.54c10.06 16.65 24.29 24.98 42.68 24.98 24.97 0 37.47-14.22 37.47-42.67m276.01 276.24h-54.47v-14.32h18.27v-43.67h17.92v43.67h18.28v14.32m7.91 0v-57.99h14.68v44.22l11.31-44.22h13.25l11.35 44.22v-44.22H3221v57.99h-23.48l-9.07-35.28-9.1 35.28h-23.57m-1444.74-496.36c3.33 0 5.9-1.41 7.63-4.25 1.76-2.8 2.02-7.21.79-13.2-1.33-6.5-3.39-11.12-6.18-13.83-2.8-2.74-5.84-4.1-9.15-4.1-3.76 0-6.59 1.43-8.46 4.26-1.89 2.83-2.21 7.19-1.01 13.05 1.29 6.35 3.43 10.97 6.44 13.8 2.98 2.84 6.29 4.27 9.94 4.27zm-37.24 19.16-20.92-102.24h28.66l7.24 35.37c2.23-2.93 5.02-5.14 8.3-6.64 3.3-1.47 7.14-2.21 11.53-2.21 8.99 0 17.12 3.24 24.35 9.71 7.24 6.5 12.11 15.9 14.63 28.21 2.29 11.16 1.5 20.54-2.36 28.11-3.88 7.57-10.76 11.38-20.67 11.38-5.02 0-9.81-1.1-14.4-3.29-3.41-1.62-7.4-4.74-12.03-9.36l2.24 10.96h-26.57m106.06-2.86c-4.06-2-7.3-4.36-9.78-7.07-2.48-2.71-4.73-6.45-6.72-11.19l26.53-2.85c1.77 3.18 3.69 5.37 5.74 6.54 2.64 1.48 6.26 2.24 10.91 2.24 3.64 0 6.02-.72 7.19-2.1 1.13-1.4 1.35-3.83.64-7.33-3.81-1.38-7.4-2.52-10.71-3.38-3.34-.86-10.56-2.36-21.66-4.5-9.24-1.76-15.86-4.45-19.91-8.09-4.05-3.62-6.64-8.23-7.79-13.88-1.23-5.99.02-11.04 3.76-15.11 3.76-4.09 10.05-6.14 18.88-6.14 6.64 0 12.69 1.02 18.13 3.07 3.97 1.52 8.21 4.07 12.65 7.66-.1-2.14-.11-3.71.01-4.71.13-1 .53-2.45 1.21-4.35h26.63c-.87 3.07-1.3 5.59-1.35 7.56-.02 1.98.3 4.72 1.01 8.19l6.7 32.71c.71 3.5.76 7.14.17 10.99-.62 3.84-1.92 6.79-3.92 8.88-2.8 3.02-6.71 5.02-11.68 5.98-4.94.95-11.7 1.43-20.2 1.43-5.3 0-10.32-.41-15.03-1.19-4.7-.79-8.52-1.91-11.41-3.36zm18.64-39.75a159 159 0 0 1 12.95 3.71l-.93-4.55c-.73-3.52-1.86-6.4-3.46-8.61-1.59-2.19-3.9-4.07-6.93-5.62-3.05-1.52-6.14-2.28-9.3-2.28-3.03 0-5.17.71-6.45 2.11-1.25 1.43-1.67 3.24-1.21 5.48.4 1.95 1.54 3.69 3.46 5.24 1.82 1.47 5.8 2.99 11.87 4.52m57.47 42.61 15.93-74.05c-2.24-3.96-4.56-6.69-6.95-8.24-2.38-1.53-5.25-2.28-8.58-2.28-5.02 0-9.46.64-13.26 1.95l-1.84-19.81c8.33-1.12 14.52-1.69 18.62-1.69 10.09 0 18.05 2.24 23.89 6.71 4.14 3.14 8.82 9.24 14 18.26l45.56 79.15h-27.96l-24.25-49.3-5.2 49.3h-29.96m179.59-20.57c2.84 0 4.95-1.29 6.33-3.83.98-1.62 1.11-4.12.43-7.47l-8.64-42.18h28.45l9.52 46.51c2.05 10.04 1.35 17.42-2.16 22.13-3.48 4.74-9.21 7.1-17.16 7.1-5.4 0-10.11-.89-14.13-2.62-4.04-1.74-8.79-5.05-14.23-9.88-1.34 4.14-3.51 7.26-6.54 9.35-3 2.1-7.45 3.15-13.35 3.15-5.5 0-10.38-.96-14.65-2.86-4.28-1.93-8.76-5.12-13.52-9.64l2.21 10.81h-26.49l-15.16-74.05h28.45l7.73 37.8c1.15 5.61 3.03 9.66 5.63 12.13 2.6 2.46 5.52 3.69 8.78 3.69 2 0 3.62-.57 4.88-1.71 1.24-1.15 1.99-2.65 2.22-4.5.13-1.16-.14-3.36-.8-6.62l-8.35-40.79h28.47l7.82 38.2c1.09 5.35 2.89 9.24 5.43 11.66 2.54 2.4 5.5 3.62 8.83 3.62m64.39 11.5c-8.87-7.14-14.5-16.52-16.87-28.09-1.67-8.14-1.25-15.21 1.21-21.23 2.44-6.02 6.21-10.43 11.26-13.19 5.08-2.76 12.51-4.14 22.32-4.14 11.3 0 20.3 1.61 27 4.83 6.71 3.24 12.94 8.57 18.75 16.02l-27.44 2.57c-2.22-2.24-4.18-3.78-5.9-4.66-2.79-1.41-5.6-2.1-8.39-2.1-4.4 0-7.67 1.6-9.75 4.81-1.49 2.24-2.03 5.62-1.6 10.18h56.89l.66 3.22c1.99 9.76 2.02 17.69.06 23.78-1.95 6.07-5.69 10.73-11.17 13.92-5.46 3.22-13.51 4.84-24.1 4.84-13.07 0-24.04-3.6-32.93-10.76zm18.75-11.43c3.44 3.57 7.41 5.38 11.93 5.38 3.9 0 6.8-1.19 8.72-3.57 1.89-2.36 2.56-6.28 2.01-11.78h-27.97c1.36 4.42 3.13 7.74 5.31 9.97m70.79 20.5-15.15-74.05h28.39l7.28 35.55c1.38 6.74 3.41 11.43 6.08 14.02 2.65 2.6 5.73 3.91 9.16 3.91 3.11 0 5.32-.95 6.66-2.9 1.32-1.94 1.5-5.22.55-9.86l-8.33-40.72h28.52l9.63 47.08c2 9.76 1.26 16.97-2.21 21.63-3.5 4.67-9.16 7.03-17.01 7.03-5.81 0-10.96-1.08-15.43-3.19-4.49-2.12-9.2-5.62-14.16-10.55l2.47 12.05h-26.45m90.59 0-4.23-20.71h10.47l-5.34-26.07c-1.69-8.28-2.13-14.28-1.27-17.97.84-3.69 2.75-6.45 5.74-8.26 2.96-1.81 7.98-2.71 15.05-2.71 6.1 0 12.8.76 20.13 2.28l1.92 19.62c-4.01-1.22-7.06-1.84-9.16-1.84-2.33 0-3.78.81-4.39 2.39-.39 1.02-.26 3.11.38 6.28l5.38 26.28h15.62l4.23 20.71H2319l5.77 28.18-31.43-14.57-2.79-13.61h-10.47m116.25-8.86c-3.55-3.52-5.84-7.73-6.84-12.62-.92-4.47-.42-8.44 1.51-11.92 1.91-3.47 4.64-5.95 8.17-7.43 3.53-1.47 10.06-3.04 19.56-4.78 6.36-1.17 10.22-2.14 11.61-2.93 1.89-1.12 2.64-2.69 2.22-4.73-.37-1.82-1.49-3.34-3.35-4.53-2.43-1.64-5.55-2.45-9.36-2.45-3.49 0-6.14.71-7.94 2.16-1.8 1.43-2.92 3.84-3.4 7.2l-28.73-2.67c.19-7.1 2.76-12.59 7.7-16.45 4.95-3.86 14.2-5.78 27.72-5.78 9.56 0 17.38 1.19 23.44 3.59 6.03 2.38 10.76 5.59 14.16 9.64 3.42 4.05 5.56 8.22 6.44 12.5.87 4.24.44 8.11-1.28 11.64-1.71 3.55-4.67 6.26-8.91 8.16-4.2 1.9-10.92 3.38-20.12 4.45-6.09.76-9.96 1.6-11.63 2.52-1.66.93-2.32 2.29-1.94 4.13.33 1.61 1.33 2.99 3.04 4.14 1.68 1.14 4.15 1.71 7.35 1.71 3.16 0 5.7-.74 7.63-2.24 1.41-1.11 2.2-2.86 2.43-5.24l27.46 2.67c-.89 4.83-2.43 8.67-4.66 11.5s-5.3 4.92-9.24 6.28c-3.94 1.34-10.32 2.03-19.15 2.03-8.38 0-15.22-.89-20.55-2.62-5.33-1.74-9.78-4.38-13.34-7.93m78.46 8.86 15.93-74.05c-2.24-3.96-4.56-6.69-6.95-8.24-2.38-1.53-5.25-2.28-8.58-2.28-5.02 0-9.46.64-13.26 1.95l-1.84-19.81c8.34-1.12 14.53-1.69 18.62-1.69 10.09 0 18.05 2.24 23.89 6.71 4.15 3.14 8.82 9.24 14 18.26l45.57 79.15h-27.97l-24.25-49.3-5.19 49.3h-29.97m125.43-13.31c3.17 0 5.71-.74 7.64-2.24 1.41-1.11 2.2-2.86 2.43-5.24l27.46 2.67c-.89 4.83-2.44 8.67-4.67 11.5s-5.3 4.92-9.24 6.28c-3.93 1.34-10.32 2.03-19.14 2.03-8.38 0-15.23-.89-20.56-2.62-5.33-1.74-9.78-4.38-13.34-7.93-3.55-3.52-5.84-7.73-6.84-12.62-.91-4.47-.42-8.44 1.52-11.92 1.9-3.47 4.63-5.95 8.16-7.43 3.53-1.47 10.07-3.04 19.56-4.78 6.36-1.17 10.23-2.14 11.62-2.93 1.89-1.12 2.63-2.69 2.22-4.73-.37-1.82-1.49-3.34-3.36-4.53-2.43-1.64-5.55-2.45-9.35-2.45-3.5 0-6.14.71-7.94 2.16-1.8 1.43-2.93 3.84-3.41 7.2l-28.73-2.67c.2-7.1 2.76-12.59 7.71-16.45 4.95-3.86 14.19-5.78 27.71-5.78 9.57 0 17.38 1.19 23.44 3.59 6.03 2.38 10.77 5.59 14.16 9.64 3.43 4.05 5.57 8.22 6.44 12.5.87 4.24.45 8.11-1.28 11.64-1.71 3.55-4.67 6.26-8.9 8.16-4.21 1.9-10.92 3.38-20.13 4.45-6.08.76-9.96 1.6-11.62 2.52-1.67.93-2.32 2.29-1.94 4.13.33 1.61 1.32 2.99 3.04 4.14 1.68 1.14 4.15 1.71 7.34 1.71m52.59 13.31-4.24-20.71h10.48l-5.34-26.07c-1.69-8.28-2.14-14.28-1.27-17.97.84-3.69 2.75-6.45 5.73-8.26 2.97-1.81 7.99-2.71 15.06-2.71 6.1 0 12.8.76 20.13 2.28l1.92 19.62c-4.01-1.22-7.07-1.84-9.16-1.84-2.33 0-3.78.81-4.39 2.39-.39 1.02-.27 3.11.38 6.28l5.38 26.28h15.62l4.23 20.71h-15.61l5.77 28.18-31.43-14.57-2.79-13.61h-10.47m106.69 1.69c-13.06 0-24.03-3.6-32.93-10.76-8.86-7.14-14.49-16.52-16.86-28.09-1.67-8.14-1.25-15.21 1.2-21.23 2.46-6.02 6.22-10.43 11.27-13.19 5.08-2.76 12.51-4.14 22.32-4.14 11.3 0 20.3 1.61 27 4.83 6.71 3.24 12.95 8.57 18.75 16.02l-27.44 2.57c-2.22-2.24-4.18-3.78-5.9-4.66-2.79-1.41-5.6-2.1-8.38-2.1-4.41 0-7.67 1.6-9.76 4.81-1.49 2.24-2.03 5.62-1.6 10.18h56.88l.67 3.22c1.99 9.76 2.02 17.69.06 23.78-1.95 6.07-5.68 10.73-11.17 13.92-5.47 3.22-13.51 4.84-24.11 4.84zm-14.18-22.19c3.45 3.57 7.41 5.38 11.94 5.38 3.9 0 6.8-1.19 8.71-3.57 1.91-2.36 2.57-6.28 2.02-11.78h-27.97c1.36 4.42 3.14 7.74 5.3 9.97m71.02 20.5-15.16-74.05h28.44l7.74 37.8c1.15 5.61 3.02 9.66 5.62 12.13 2.61 2.46 5.52 3.69 8.78 3.69 2 0 3.62-.57 4.89-1.71 1.24-1.15 1.98-2.65 2.22-4.5.12-1.16-.14-3.36-.81-6.62l-8.35-40.79h28.47l7.82 38.2c1.09 5.35 2.89 9.24 5.43 11.66 2.54 2.4 5.5 3.62 8.84 3.62 2.83 0 4.95-1.29 6.33-3.83.98-1.62 1.11-4.12.42-7.47l-8.63-42.18h28.45l9.51 46.51c2.06 10.04 1.35 17.42-2.15 22.13-3.49 4.74-9.22 7.1-17.16 7.1-5.41 0-10.11-.89-14.13-2.62-4.05-1.74-8.8-5.05-14.24-9.88-1.34 4.14-3.51 7.26-6.53 9.35-3 2.1-7.46 3.15-13.35 3.15-5.5 0-10.39-.96-14.66-2.86-4.27-1.93-8.76-5.12-13.51-9.64l2.21 10.81h-26.49" style="stroke:none;stroke-width:1;stroke-dasharray:none;stroke-linecap:butt;stroke-dashoffset:0;stroke-linejoin:miter;stroke-miterlimit:4;fill:#fff;fill-rule:evenodd;opacity:1" transform="matrix(.47 0 0 -.47 -315.787 1293.342)" vector-effect="non-scaling-stroke"/>
    <path d="M1684.47 1855.08c16.14-33.71 14.18-86.8-2.44-150.31h113.47c28.98 99.07 34 182.66 8.64 232.7-55.53 109.57-236.96 19.47-416.25-200.59 133.28 143.77 258.67 197.39 296.58 118.2" style="stroke:none;stroke-width:1;stroke-dasharray:none;stroke-linecap:butt;stroke-dashoffset:0;stroke-linejoin:miter;stroke-miterlimit:4;fill:#fff;fill-rule:evenodd;opacity:1" transform="matrix(.47 0 0 -.47 -312.186 1291.276)" vector-effect="non-scaling-stroke"/>
  </g>
  <path d="M270.652 50.155C215.59 65.071 134.25 125.349 68.085 200.271c-15.14 17.143-13.175 16.302 8.751-3.745 130.426-119.25 222.958-97.404 193.51 45.688-2.408 11.699-4.377 21.83-4.377 22.513 0 .683 19.754 1.242 43.898 1.242h43.898l2.102-7.854c40.147-149.98 6.237-232.734-85.215-207.96" style="stroke:#000;stroke-width:0;stroke-dasharray:none;stroke-linecap:butt;stroke-dashoffset:0;stroke-linejoin:miter;stroke-miterlimit:4;fill:#006bf8;fill-rule:nonzero;opacity:1" transform="matrix(.61 0 0 .61 314.356 318.077)" vector-effect="non-scaling-stroke"/>
</svg>
