<svg xmlns="http://www.w3.org/2000/svg" xml:space="preserve" width="1080" height="1080">
  <g>
    <path d="M440 2233c-39-10-67-26-97-55-80-78-75-27-80-817-6-811-8-795 65-871 82-86 73-84 589-88 493-3 539 1 608 54 44 34 81 91 90 139 9 47 7 1413-1 1465-14 80-86 150-181 174-87 23-909 22-993-1zm1020-153c46-46 53-86 18-98-17-6-767-8-1070-2-40 0-11 88 39 121 26 18 56 19 501 19h472l40-40zm14-240 26-10-2-402-3-403-540-2c-297-2-545 1-552 5-9 6-12 108-14 402-1 391-1 395 19 406 28 14 1030 18 1066 4zm7-960c17-10 19-22 19-130 0-127-9-157-57-193-22-17-55-19-498-19-467 0-475 1-501 21-44 34-52 62-54 178-3 141-3 141 18 146 38 10 1054 7 1073-3z" style="stroke:none;stroke-width:1;stroke-dasharray:none;stroke-linecap:butt;stroke-dashoffset:0;stroke-linejoin:miter;stroke-miterlimit:4;fill:#303f4f;fill-rule:nonzero;opacity:1" transform="matrix(.53 0 0 -.53 38.639 1246.763)" vector-effect="non-scaling-stroke"/>
    <path d="M895 811c-52-23-79-100-53-151 19-36 75-62 118-55 80 13 120 119 68 180-25 28-97 42-133 26z" style="stroke:none;stroke-width:1;stroke-dasharray:none;stroke-linecap:butt;stroke-dashoffset:0;stroke-linejoin:miter;stroke-miterlimit:4;fill:#303f4f;fill-rule:nonzero;opacity:1" transform="matrix(.53 0 0 -.53 38.659 1255.18)" vector-effect="non-scaling-stroke"/>
  </g>
</svg>
