<svg xmlns="http://www.w3.org/2000/svg" xml:space="preserve" width="1080" height="1080">
  <rect width="100%" height="100%" fill="transparent"/>
  <path d="M133.531 42.266c-6.528.873-14.064 2.67-16.747 3.993s-5.442 2.406-6.131 2.406c-4.026 0-22.838 12.188-32.221 20.875-11.248 10.414-12.528 14.238-7.08 21.163 4.787 6.086 17.003.37 27.831-13.022 6.964-8.614 44.335-19.73 57.79-17.191 17.58 3.319 23.257 4.771 27.551 7.047 2.586 1.371 5.307 2.493 6.047 2.493.74 0 2.313 1.068 3.494 2.374 1.182 1.305 2.778 2.373 3.548 2.373.769 0 5.627 3.887 10.795 8.637s10.756 9.229 12.417 9.953c6.358 2.77 14.309-5.505 11.751-12.232-1.289-3.389-17.548-19.678-22.118-22.158-1.43-.776-6.122-3.413-10.427-5.861s-8.498-4.451-9.316-4.451c-.819 0-3.552-1.052-6.073-2.337-2.724-1.389-10.25-3.074-18.553-4.154-15.886-2.067-16.419-2.066-32.558.092m3.561 34.891c-1.958.591-6.766 1.954-10.683 3.028-3.916 1.075-7.922 2.638-8.902 3.474-.979.836-3.02 1.899-4.536 2.361-8.097 2.471-23.84 18.357-23.906 24.123-.126 11.088 10.304 12.767 20.503 3.301 25.714-23.864 60.938-22.789 84.46 2.58 7.627 8.225 23.107.928 17.966-8.47-11.166-20.414-52.462-37.173-74.902-30.397m2.456 48.368c-8.018 6.089-11.219 13.633-9.124 21.504 1.447 5.437 2.385 7.128 7.511 13.537 2.314 2.894 2.67 4.886 2.913 16.322l.277 13.025-3.441 1.779c-1.893.979-5.505 1.78-8.026 1.78-11.971 0-26.857 12.422-31.106 25.957-2.585 8.237-3.799 84.617-1.369 86.119.573.354 1.629 2.922 2.347 5.708 1.618 6.279 8.997 15.002 16.486 19.487l5.646 3.382h212.463l5.341-3.416c7.238-4.63 10.723-8.4 15.202-16.448l3.789-6.807v-85.209l-3.059-6.682c-3.611-7.887-13.065-16.669-21.581-20.047-5.264-2.088-10.949-2.27-88.097-2.814-58.304-.411-82.939-.971-84.071-1.91-1.219-1.011-1.505-4.601-1.202-15.051l.397-13.723 4.468-4.709c17.456-18.397-5.729-46.999-25.764-31.784m193.139 92.788 4.998 4.663v82.03l-4.47 4.47-4.47 4.471-96.42.37c-108.637.418-106.693.542-112.026-7.149l-3.385-4.883-.345-37.275c-.384-41.5-.462-41.039 8.217-48.343l3.586-3.017h199.316l4.999 4.663m-185.779 35.653c-12.478 9.815-.733 28.083 13.368 20.791 7.724-3.994 8.562-12.268 1.952-19.267-4.365-4.622-10.594-5.242-15.32-1.524m38.426.672c-11.381 9.576-1.841 25.682 12.204 20.603 5.647-2.042 6.455-3.111 7.364-9.745 1.509-11.008-11.085-17.996-19.568-10.858m113.321.92c-5.734 6.079-6.266 9.445-2.315 14.626 6.523 8.551 16.188 8.096 21.751-1.025 6.894-11.306-10.272-23.318-19.436-13.601" style="stroke:#303f4f;stroke-width:0;stroke-dasharray:none;stroke-linecap:butt;stroke-dashoffset:0;stroke-linejoin:miter;stroke-miterlimit:4;fill:#303f4f;fill-rule:nonzero;opacity:1" transform="matrix(2.79 0 0 2.79 -77.289 17.21)" vector-effect="non-scaling-stroke"/>
</svg>
