<svg xmlns="http://www.w3.org/2000/svg" xml:space="preserve" width="1080" height="1080">
  <rect width="100%" height="100%" fill="transparent"/>
  <g>
    <path d="M1045 2850c-94-13-187-83-245-185l-35-60-5-177c-4-126-9-181-18-190-8-8-53-15-120-19-122-6-180-29-248-97-64-63-75-82-100-161-24-75-24-79-24-570V898l26-84c23-73 34-91 81-139 50-49 89-73 196-119 43-18 41-12 37-177-3-153 2-174 52-205 40-26 41-26 75-7 33 17 156 111 198 150 49 46 262 221 280 230 12 6 120 11 263 12 134 0 255 4 270 7 42 10 126 60 163 96 19 18 48 62 66 97 27 53 33 76 33 129 0 64 12 102 32 102 6 0 34-20 62-43 28-24 89-75 136-112 47-38 98-81 113-97 46-45 160-128 186-135 36-9 73 8 99 47 22 33 23 44 22 170-1 74-1 140-1 147 1 7 36 29 79 49 87 42 161 99 182 141 8 15 23 38 35 51 20 23 20 33 20 717 0 626-2 695-16 711-9 11-24 35-34 54-36 72-153 149-245 161-77 10-1542 9-1615-1zm1648-213c16-10 37-32 48-50 19-31 19-51 17-669l-3-638-41-41c-41-41-43-42-132-48-79-5-92-9-111-31-29-34-34-61-28-136 4-61 3-66-20-81s-25-15-61 18c-20 19-38 37-40 41-3 5-159 133-211 172-9 7-191 13-530 16l-516 5-38 30c-21 17-49 49-62 72l-25 42v1172l24 47c28 55 53 80 92 92 16 5 385 8 819 7 744-2 793-3 818-20zM735 2016l25-25-1-353c0-194 4-366 9-383 27-88 112-188 180-213 20-7 44-20 55-30 17-15 55-17 395-20 247-2 381-7 389-14 27-22 9-124-29-166-52-56-88-62-356-63-136-1-257-4-269-7-36-11-141-91-221-170-105-103-147-98-130 18 17 108-26 157-144 167-82 6-119 25-154 74l-29 42-3 514-3 514 32 49c23 35 42 52 73 63 93 35 148 36 181 3z" style="stroke:none;stroke-width:1;stroke-dasharray:none;stroke-linecap:butt;stroke-dashoffset:0;stroke-linejoin:miter;stroke-miterlimit:4;fill:#303f4f;fill-rule:nonzero;opacity:1" transform="matrix(.35 0 0 -.35 -28.727 1091.028)" vector-effect="non-scaling-stroke"/>
    <path d="M1715 2350c-135-71-184-185-155-356l13-76-49-46c-49-47-114-129-114-146 0-5-11-32-24-60-30-64-42-152-27-199 18-55 37-57 506-57 359 0 422 2 450 16 45 21 56 55 45 141-13 100-65 200-151 286-68 69-69 70-61 111 4 22 7 82 6 132v91l-45 58c-24 32-66 74-94 94-47 33-55 35-145 39-91 4-98 2-155-28zm181-130c8 0 35-19 59-41 43-40 45-44 45-100 0-53-3-63-35-98-79-87-222-50-254 65-19 67 39 157 111 174 18 4 39 6 46 4 8-2 20-4 28-4zm-90-447c46-15 55-15 105 0 115 34 114 34 184-34 85-83 107-156 50-159-90-6-590 1-597 8-21 21 5 76 61 135 78 83 86 85 197 50z" style="stroke:none;stroke-width:1;stroke-dasharray:none;stroke-linecap:butt;stroke-dashoffset:0;stroke-linejoin:miter;stroke-miterlimit:4;fill:#303f4f;fill-rule:nonzero;opacity:1" transform="matrix(.35 0 0 -.35 -26.4 1087.479)" vector-effect="non-scaling-stroke"/>
  </g>
</svg>
