<svg xmlns="http://www.w3.org/2000/svg" xml:space="preserve" width="1080" height="1080">
  <rect width="100%" height="100%" fill="transparent"/>
  <g>
    <path d="M1030 2093c-28-10-72-58-114-123-80-124-127-242-151-384-21-119-21-216 0-311 8-38 15-80 15-93 0-12 9-39 20-59 11-21 20-43 20-50 0-27 93-191 145-253s155-159 205-192c77-51 184-105 222-113 18-4 42-13 54-20 11-7 60-18 110-24 49-7 111-14 137-18 45-6 167 7 262 27 117 25 268 96 362 171 108 87 118 170 32 264l-40 43-5 371-4 371 45 47c29 31 51 66 62 99 15 49 15 55-3 110-15 45-29 66-67 98-46 38-51 40-116 40-59 0-75-4-110-28-23-16-41-32-41-36s-11-15-25-24c-23-15-66-17-378-17-194 0-360 1-370 1s-39 20-65 44-57 48-69 55c-22 11-106 14-133 4zm645-713c308-308 563-570 566-582 6-24-9-36-111-91-118-64-282-107-406-107-74 0-225 32-307 66-172 69-330 210-414 369-40 74-73 154-73 173 0 11-7 39-15 62-10 29-15 81-15 160s5 131 15 160c8 23 15 52 15 63s9 41 21 66c80 176 109 221 143 221 15 0 187-165 581-560zm359 433c40-60 51-72 79-82 15-6 32-23 37-37 13-33 6-542-7-555-6-6-132 114-319 302-170 171-321 317-335 324-31 16-47 64-27 76 7 5 133 9 280 9h268l24-37z" style="stroke:none;stroke-width:1;stroke-dasharray:none;stroke-linecap:butt;stroke-dashoffset:0;stroke-linejoin:miter;stroke-miterlimit:4;fill:#303f4f;fill-rule:nonzero;opacity:1" transform="matrix(.51 0 0 -.51 -209.468 1111.083)" vector-effect="non-scaling-stroke"/>
    <path d="M647 892c-15-15-27-39-27-52 0-18 72-96 283-308 155-156 294-290 309-298 56-29 122 28 100 87-6 14-138 154-296 312-313 315-314 316-369 259z" style="stroke:none;stroke-width:1;stroke-dasharray:none;stroke-linecap:butt;stroke-dashoffset:0;stroke-linejoin:miter;stroke-miterlimit:4;fill:#303f4f;fill-rule:nonzero;opacity:1" transform="matrix(.51 0 0 -.51 -217.53 1120.26)" vector-effect="non-scaling-stroke"/>
    <path d="M584 627c-19-17-27-33-27-55 0-28 23-55 192-222 171-169 196-190 225-190 40 0 76 35 76 74 0 23-35 63-193 222-209 211-219 217-273 171z" style="stroke:none;stroke-width:1;stroke-dasharray:none;stroke-linecap:butt;stroke-dashoffset:0;stroke-linejoin:miter;stroke-miterlimit:4;fill:#303f4f;fill-rule:nonzero;opacity:1" transform="matrix(.51 0 0 -.51 -219.658 1122.472)" vector-effect="non-scaling-stroke"/>
  </g>
</svg>
