<svg xmlns="http://www.w3.org/2000/svg" xml:space="preserve" width="1080" height="1080">
  <g>
    <path d="M541 1839c-108-18-173-81-191-186-17-98-10-1283 8-1335 33-97 154-206 250-227 72-15 1111-15 1182 0 151 32 270 178 270 330v66l53 35c38 26 59 49 79 90 26 52 28 63 37 284 6 127 7 242 4 255-17 65-62 89-97 50-22-25-63-33-70-14-4 8-6 127-6 264 0 276-3 290-62 346-24 23-49 36-87 43-67 13-1293 11-1370-1zm1353-150c24-19 26-26 26-99 0-72-2-81-22-92-18-10-161-12-691-8l-668 5-29 35c-33 39-37 68-16 109 20 38 41 53 84 62 20 3 319 7 663 8 619 1 627 1 653-20zm10-375c26-35 26-142 0-161-14-10-86-13-293-13h-276l-61-29c-68-32-120-81-161-150-25-43-27-54-28-161 0-105 2-118 23-144 12-16 22-34 22-41 0-20 96-102 149-128 44-21 58-22 326-24 154-1 288-4 298-7 41-10-3-131-65-177-78-60-72-59-628-59-484 0-513 1-567 20-72 25-115 67-142 137-20 53-21 72-21 507 0 249 2 455 4 457s319 3 703 2l698-2 19-27zm185-333c10-20-3-202-19-254-17-58-58-97-110-108-25-4-166-8-313-9-296 0-312 3-371 63-18 19-38 54-45 79-25 87 28 192 114 230 22 9 121 14 360 18 182 3 340 3 353 1 12-2 26-11 31-20z" style="stroke:none;stroke-width:1;stroke-dasharray:none;stroke-linecap:butt;stroke-dashoffset:0;stroke-linejoin:miter;stroke-miterlimit:4;fill:#2b3a4e;fill-rule:nonzero;opacity:1" transform="matrix(.54 0 0 -.54 -149.564 1056.495)" vector-effect="non-scaling-stroke"/>
    <path d="M1344 885c-33-22-56-79-45-107 20-46 46-69 87-75 36-4 44-1 72 27 26 26 32 39 32 75s-5 48-31 69c-35 29-83 34-115 11z" style="stroke:none;stroke-width:1;stroke-dasharray:none;stroke-linecap:butt;stroke-dashoffset:0;stroke-linejoin:miter;stroke-miterlimit:4;fill:#2b3a4e;fill-rule:nonzero;opacity:1" transform="matrix(.54 0 0 -.54 -148.099 1058.734)" vector-effect="non-scaling-stroke"/>
  </g>
</svg>
